<svg width="30" height="24" viewBox="0 0 30 24" fill="none" xmlns="http://www.w3.org/2000/svg">
<path fill-rule="evenodd" clip-rule="evenodd" d="M27.0953 12.5242L25.4958 23.7908L4.60653 24L2.8151 13.0263L0.041587 10.5541L0 8.6034L30 8.56155L29.8145 11.0145L27.0953 12.5242ZM10.7997 14.3558C10.7997 12.2988 8.135 12.3085 8.14779 14.227C8.14779 14.8161 8.18298 19.7187 8.18938 20.2595C8.18938 22.1136 10.8157 22.0557 10.8029 20.1179C10.7997 19.5964 10.8061 15.0382 10.7997 14.3558ZM16.3628 14.3558C16.3628 12.2988 13.698 12.3085 13.7108 14.227C13.7108 14.8161 13.746 19.7187 13.7524 20.2595C13.7524 22.1136 16.3788 22.0557 16.366 20.1179C16.3628 19.5964 16.3692 15.0382 16.3628 14.3558ZM21.9258 14.3558C21.9258 12.2988 19.261 12.3085 19.2738 14.227C19.2738 14.8161 19.309 19.7187 19.3154 20.2595C19.3154 22.1136 21.9418 22.0557 21.929 20.1179C21.9258 19.5964 21.9322 15.0382 21.9258 14.3558ZM16.2732 2.66108C14.7633 1.1578 16.753 -0.931351 18.2118 0.513992L24.6097 6.88444L20.4511 6.878L16.2732 2.66108ZM9.35701 6.8941H5.24312C6.98017 5.14295 11.2156 0.890616 11.5547 0.542962C13.0422 -0.976418 15.1248 1.02582 13.7012 2.47438L9.35701 6.8941Z" fill="#024A6C"/>
</svg>
