<svg width="26" height="24" viewBox="0 0 26 24" fill="none" xmlns="http://www.w3.org/2000/svg">
<rect width="26" height="24" rx="3" fill="#CEE9EF"/>
<mask id="mask0_170_131" style="mask-type:luminance" maskUnits="userSpaceOnUse" x="2" y="2" width="22" height="20">
<path d="M23.8422 2H2.15723V22H23.8422V2Z" fill="white"/>
</mask>
<g mask="url(#mask0_170_131)">
<path d="M12.3961 6.98087C11.1818 6.95167 6.45223 6.20476 3.87596 9.14141C0.558597 12.9227 2.61901 16.8208 5.21812 18.7975C7.06247 20.1995 11.3202 22.1368 13.8752 21.9924C16.3389 21.8538 20.5373 19.3781 22.2432 16.8178C24.3051 13.7236 24.9427 9.57178 20.6393 7.25076C16.5398 5.03913 13.7428 7.01294 12.3961 6.98087Z" fill="white"/>
<path d="M10.4283 13.569C10.0692 13.5806 10.0814 13.1444 9.96722 12.1641C9.77245 10.501 9.89572 10.698 10.3781 10.6804C10.5775 10.6746 10.9107 10.2778 11.3855 10.4996C12.2285 10.8861 12.2225 12.9898 10.7829 12.6572C10.404 12.5697 10.9274 13.5515 10.4283 13.569ZM10.8787 11.0218C10.0951 11.0466 10.7616 12.7316 11.1953 11.9963C11.3855 11.6797 11.2516 11.0087 10.8787 11.0218Z" fill="#014E72"/>
<path d="M13.172 13.3093C12.7079 13.3253 13.1629 12.7958 13.2435 12.5215C13.2876 12.3698 13.0016 12.4661 12.7505 12.3056C12.3731 12.0678 12.0155 10.7038 12.3442 10.4952C12.8357 10.1816 12.8159 11.7732 13.1872 11.76C13.6377 11.7454 13.3424 10.6338 13.63 10.4106C14.3772 9.84018 14.1444 13.2801 13.172 13.3093Z" fill="#EE765E"/>
<path d="M16.0426 12.4776C15.9224 12.482 15.7869 12.3945 15.758 12.1888C15.7458 12.0983 15.7185 11.401 15.688 11.2464C15.6484 11.0509 15.5511 10.9473 15.4385 10.9838C15.3882 10.9998 15.2893 11.0713 15.1843 11.366C15.1584 11.4375 15.058 12.0341 15.0367 12.1085C14.9774 12.323 14.9074 12.4383 14.81 12.4805C14.7811 12.4937 14.7506 12.501 14.7187 12.501C14.6152 12.5039 14.5269 12.4383 14.4874 12.3697C14.4219 12.2632 14.425 12.0925 14.4387 11.9671C14.4402 11.9525 14.4874 11.2274 14.4965 11.1618C14.5406 10.8467 14.6061 10.7022 14.7141 10.6876C14.8602 10.6687 14.9059 10.6118 14.9743 10.568C14.9956 10.5549 15.3015 10.3638 15.4613 10.3404C15.7017 10.3054 15.8995 10.4177 16.0197 10.5111C16.1095 10.5811 16.1506 10.6118 16.21 10.6147C16.2541 10.6132 16.4732 10.4571 16.5052 10.4367C16.6193 10.3638 16.7532 10.3229 16.8947 10.3185C17.0424 10.3142 17.1641 10.3492 17.2295 10.3857C17.368 10.4615 17.5202 10.6847 17.5552 10.8641C17.5825 11.0071 17.683 11.8605 17.6845 12.0356C17.6861 12.1975 17.6647 12.3872 17.473 12.4251C17.3482 12.4514 17.1717 12.3565 17.12 12.1421C17.0987 12.0473 17.0104 11.3835 17.0104 11.3835C16.9982 11.2975 16.9267 11.0582 16.8019 11.0494C16.7152 11.0524 16.6147 11.1691 16.563 11.277C16.5234 11.3558 16.3941 12.0867 16.3667 12.1581C16.2952 12.3361 16.251 12.4426 16.0776 12.4733C16.0654 12.4762 16.0532 12.4776 16.0426 12.4776Z" fill="#014E72"/>
<path d="M7.39599 13.4684C7.14341 13.4771 7.03383 13.2627 7.01255 13.1795L7.01558 13.178C7.00037 13.1387 6.98057 13.0745 6.94863 12.968C6.91969 12.9461 6.87406 12.9184 6.82384 12.9169C6.65948 12.914 6.28818 12.8411 6.05384 12.752C5.4832 12.5318 5.3432 12.3698 5.21994 12.2269C5.19863 12.2035 5.17885 12.1802 5.15755 12.1568C4.91103 11.8986 4.79842 11.5456 4.84864 11.1867C4.89733 10.8322 5.10581 10.539 5.29755 10.4135C5.27472 10.399 5.25342 10.38 5.23516 10.3566C5.14994 10.2516 5.12864 9.96568 5.43755 9.65055C5.7008 9.37921 5.94276 9.27124 6.11927 9.19248C6.20754 9.1531 6.30187 9.1283 6.39321 9.10495C6.45864 9.08743 6.52255 9.07139 6.58798 9.04804C6.70819 9.00721 6.72951 8.88612 6.73406 8.83652L6.74168 8.80881C6.81777 8.65855 6.92732 8.57102 7.04904 8.56081L7.07187 8.55935C7.26513 8.5535 7.36557 8.67168 7.39296 8.77379C7.41883 8.87153 7.51472 8.93281 7.70035 8.96928L7.82055 8.99408C8.39123 9.10932 8.49011 9.16913 8.82186 9.37193L8.92992 9.44048C9.28598 9.65492 9.50056 10.2064 9.54926 10.4383C9.59337 10.6557 9.63294 11 9.45796 11.4843C9.30578 11.9059 9.06534 12.1291 8.90557 12.2765C8.55251 12.6018 8.02751 12.7696 7.85556 12.8075C7.79624 12.8206 7.77644 12.8819 7.74754 13.1343C7.73536 13.2422 7.71253 13.4421 7.431 13.4654C7.42034 13.4669 7.40817 13.4684 7.39599 13.4684ZM5.6658 10.2983C5.77689 10.2983 5.84385 10.3391 5.87428 10.3654C5.93515 10.4164 5.95037 10.4967 5.91689 10.5857C5.90624 10.6134 5.88037 10.6426 5.83624 10.6878C5.75711 10.771 5.70689 10.9446 5.66428 11.1196C5.62168 11.2976 5.68711 11.5996 5.8058 11.7674C5.91841 11.9264 5.97472 11.9789 6.18929 12.0664C6.39014 12.1481 6.64276 12.1714 6.75689 12.1685L6.77973 12.1671C6.83298 12.1627 6.87254 12.1466 6.89689 12.1204C6.9258 12.0883 6.93646 12.0402 6.92883 11.9745C6.91362 11.8447 6.90907 11.6623 6.90296 11.4712C6.89841 11.3224 6.89382 11.1678 6.88472 11.0277C6.8634 10.7082 6.79797 10.0547 6.77514 9.93212C6.75537 9.82415 6.72799 9.80957 6.70212 9.79644C6.67318 9.78041 6.62906 9.7731 6.57429 9.77601C6.48603 9.77895 6.40079 9.80375 6.36427 9.81833C6.11624 9.91168 6.01731 9.97735 5.96406 10.0182C5.82863 10.1174 5.76015 10.1874 5.6658 10.2983ZM7.77644 9.72641C7.70187 9.72935 7.6821 9.75997 7.63644 9.85626C7.58773 9.95692 7.57556 10.2808 7.59839 10.8191L7.59991 10.8424C7.60905 11.0612 7.67145 11.7192 7.70646 11.8242C7.7445 11.9395 7.76275 11.9935 7.8784 12.0212C7.96363 12.0416 8.07621 11.9993 8.23142 11.8899C8.57383 11.6492 8.7397 11.337 8.7884 10.8439C8.82034 10.5098 8.61642 10.1436 8.40188 9.98317C8.14012 9.78768 7.97577 9.73953 7.80993 9.72786C7.79776 9.72641 7.7871 9.72495 7.77644 9.72641Z" fill="#FCBD16"/>
<path d="M17.8257 17.7922C17.2337 17.5616 18.0022 17.1021 18.2609 16.5361C18.3963 16.2399 18.3248 16.2006 18.1027 16.1276C17.4103 15.8986 17.2505 15.3792 17.4985 14.7023C17.952 13.4521 19.9957 13.3791 20.157 14.4835C20.1585 14.4981 20.5222 16.6893 20.5328 16.8089C20.5815 17.3487 20.0368 17.318 20.1387 17.3151C19.5026 17.3399 19.8176 16.1728 19.4585 16.1874C18.8088 16.2122 18.6961 18.1306 17.8257 17.7922ZM18.7007 14.3843C18.0753 14.5754 18.0205 15.9423 19.0629 15.5674C19.9698 15.2406 19.5392 14.1275 18.7007 14.3843Z" fill="#014E72"/>
<path d="M16.4449 17.9149C15.7282 17.9412 16.3308 16.3919 16.0082 16.1337C15.7799 15.9484 14.663 16.036 14.5641 16.0783C13.9767 16.3306 14.45 17.8683 13.8032 17.8931C13.2508 17.9106 13.4091 17.1213 13.5293 15.7296C13.6252 14.6252 13.5034 13.8127 14.0802 13.7631C14.6752 13.7281 14.1121 15.149 14.4621 15.3153C14.7512 15.4539 15.3782 15.4276 15.7343 15.3401C16.1193 15.2453 16.206 14.8499 16.206 14.4779C16.206 13.6551 16.4099 13.5632 16.5027 13.5413C16.9106 13.4421 16.9471 14.2635 16.9091 14.9024C16.7432 17.7311 16.9288 17.8974 16.4449 17.9149Z" fill="#014E72"/>
<path d="M10.1864 17.8857C9.37685 17.9163 10.5166 16.7828 10.6018 16.669C10.8422 16.3452 10.7525 16.3335 10.5501 16.2124C9.9201 15.8389 9.9201 15.2919 10.3218 14.6996C11.0842 13.5646 13.0838 13.9045 12.962 15.0278C12.9605 15.0424 12.7627 17.2453 12.7414 17.3722C12.6349 18.0155 11.9044 17.8696 11.9668 17.2876C12.0962 16.1059 11.4829 16.6573 10.7479 17.6012C10.6505 17.7252 10.4922 17.8726 10.1864 17.8857ZM11.3718 14.7346C10.6216 14.914 10.8149 16.0067 11.6107 15.8783C12.4857 15.7368 12.1631 14.5449 11.3718 14.7346Z" fill="#014E72"/>
<path d="M6.55526 18.5495C6.0059 18.57 6.37114 17.8362 5.63157 14.564C5.45961 13.8068 6.15657 13.6551 6.3194 14.2693C6.5446 15.114 6.66329 15.6727 6.83068 15.7252C7.14873 15.8244 7.80763 15.6858 8.15917 15.537C8.83935 15.2496 8.17893 13.5326 8.73132 13.4217C9.19848 13.324 9.20611 14.0067 9.42523 15.9586C9.57282 17.2876 10.0005 18.1309 9.34459 18.1542C8.59284 18.1732 9.1574 16.23 8.26872 16.265C8.11502 16.2708 8.00699 16.3 7.77569 16.3423C7.33284 16.424 6.90373 16.4634 6.887 16.9171C6.87024 17.4335 7.12286 18.5306 6.55526 18.5495Z" fill="#014E72"/>
<path d="M19.3275 10.3128C18.7279 10.164 18.1984 10.5141 18.0082 11.261C17.818 12.0079 18.0812 12.485 18.6869 12.6236C19.294 12.7621 19.9362 12.3376 20.0716 11.5644C20.2086 10.7927 19.7779 10.4251 19.3275 10.3128ZM19.4599 11.5644C19.3793 11.9292 19.0886 12.1553 18.8299 12.0663C18.5697 11.9773 18.4921 11.7556 18.6001 11.3733C18.7082 10.9911 18.8923 10.8088 19.1967 10.8481C19.4873 10.8875 19.5421 11.1997 19.4599 11.5644Z" fill="#4AAE42"/>
<path d="M20.9816 2.28333C20.9816 2.28333 17.4573 1.42699 15.1488 2.69181C12.4934 4.14628 12.6806 6.96185 12.6806 6.96185C14.5401 6.67447 15.228 8.14353 18.0903 7.2828C21.3666 6.29953 20.9816 2.28333 20.9816 2.28333Z" fill="#00625E"/>
<path d="M9.67714 3.03462C9.67714 3.03462 9.50065 3.97849 9.92366 4.89027C10.3452 5.80058 11.0848 6.03691 11.5078 6.13905C11.9308 6.24116 12.3523 6.20615 12.3523 6.20615C12.3523 6.20615 12.2474 5.86916 12.3173 5.09306C12.3874 4.31695 12.3173 3.71007 11.4728 3.30451C10.6267 2.90041 9.78214 3.27096 9.67714 3.03462Z" fill="#00625E"/>
<g opacity="0.78">
<path style="mix-blend-mode:multiply" d="M9.67714 3.03462C9.67714 3.03462 9.50065 3.97849 9.92366 4.89027C10.3452 5.80058 11.0848 6.03691 11.5078 6.13905C11.9308 6.24116 12.3523 6.20615 12.3523 6.20615C12.3523 6.20615 12.2474 5.86916 12.3173 5.09306C12.3874 4.31695 12.3173 3.71007 11.4728 3.30451C10.6267 2.90041 9.78214 3.27096 9.67714 3.03462Z" fill="url(#paint0_radial_170_131)"/>
</g>
</g>
<defs>
<radialGradient id="paint0_radial_170_131" cx="0" cy="0" r="1" gradientUnits="userSpaceOnUse" gradientTransform="translate(9.33387 4.87093) rotate(-35.1057) scale(3.51573 7.97501)">
<stop stop-color="#2581C4"/>
<stop offset="0.5189" stop-color="#2581C4" stop-opacity="0"/>
</radialGradient>
</defs>
</svg>
