<svg width="107" height="33" viewBox="0 0 107 33" fill="none" xmlns="http://www.w3.org/2000/svg">
<path fill-rule="evenodd" clip-rule="evenodd" d="M15.5715 31.4443C11.7636 27.4408 7.84519 22.823 4.15789 18.6663C2.22159 16.2854 0.976786 13.4081 0.558986 10.3481C0.379386 9.73396 0.332686 9.08685 0.422086 8.45036C0.511386 7.81386 0.734786 7.20246 1.07709 6.65746C1.41949 6.11246 1.87279 5.64646 2.40689 5.29066C2.94089 4.93485 3.54319 4.69736 4.17329 4.59436C5.97069 4.22136 7.83199 4.38946 9.52449 5.07746C11.217 5.76545 12.6655 6.94295 13.6889 8.46266C14.1029 7.00025 14.5966 5.56116 15.1677 4.15196C17.0794 0.405555 19.5249 -0.149445 23.6119 0.648253C24.5333 0.879455 25.3761 1.35016 26.0565 2.01366C26.737 2.67716 27.2313 3.51025 27.4904 4.43016C28.8165 7.20466 29.4106 10.2827 29.2159 13.3698C29.0213 16.457 28.0443 19.4502 26.3785 22.0635C24.2034 25.2461 21.7591 28.2915 19.7185 31.5428C18.4913 33.4493 17.3919 33.3605 15.5715 31.4443Z" fill="#EE765E"/>
<path fill-rule="evenodd" clip-rule="evenodd" d="M54.4455 31.4443C50.6376 27.4408 46.7192 22.823 43.0319 18.6663C41.0956 16.2854 39.8508 13.4081 39.433 10.3481C39.2534 9.73396 39.2067 9.08685 39.2961 8.45036C39.3854 7.81386 39.6088 7.20246 39.9511 6.65746C40.2935 6.11246 40.7468 5.64646 41.2809 5.29066C41.8149 4.93485 42.4172 4.69736 43.0473 4.59436C44.8447 4.22136 46.706 4.38946 48.3985 5.07746C50.091 5.76545 51.5395 6.94295 52.5629 8.46266C52.9769 7.00025 53.4706 5.56116 54.0417 4.15196C55.9534 0.405555 58.3989 -0.149445 62.4859 0.648253C63.4073 0.879455 64.2501 1.35016 64.9305 2.01366C65.611 2.67716 66.1053 3.51025 66.3644 4.43016C67.6905 7.20466 68.2846 10.2827 68.0899 13.3698C67.8953 16.457 66.9183 19.4502 65.2525 22.0635C63.0774 25.2461 60.6331 28.2915 58.5925 31.5428C57.3653 33.4493 56.2659 33.3605 54.4455 31.4443Z" fill="#EE765E"/>
<path fill-rule="evenodd" clip-rule="evenodd" d="M93.3195 31.4443C89.5116 27.4408 85.5932 22.823 81.9059 18.6663C79.9696 16.2854 78.7248 13.4081 78.307 10.3481C78.1274 9.73396 78.0807 9.08685 78.1701 8.45036C78.2594 7.81386 78.4828 7.20246 78.8251 6.65746C79.1675 6.11246 79.6208 5.64646 80.1549 5.29066C80.6889 4.93485 81.2912 4.69736 81.9213 4.59436C83.7187 4.22136 85.58 4.38946 87.2725 5.07746C88.965 5.76545 90.4135 6.94295 91.4369 8.46266C91.8509 7.00025 92.3446 5.56116 92.9157 4.15196C94.8274 0.405555 97.2729 -0.149445 101.36 0.648253C102.281 0.879455 103.124 1.35016 103.805 2.01366C104.485 2.67716 104.979 3.51025 105.238 4.43016C106.565 7.20466 107.159 10.2827 106.964 13.3698C106.769 16.457 105.792 19.4502 104.127 22.0635C101.951 25.2461 99.5071 28.2915 97.4665 31.5428C96.2393 33.4493 95.1399 33.3605 93.3195 31.4443Z" fill="#EE765E"/>
</svg>
