<svg width="29" height="33" viewBox="0 0 29 33" fill="none" xmlns="http://www.w3.org/2000/svg">
<path fill-rule="evenodd" clip-rule="evenodd" d="M15.3195 31.2717C11.5116 27.2683 7.59323 22.6504 3.90593 18.4937C1.96963 16.1128 0.724833 13.2355 0.307033 10.1755C0.127433 9.56144 0.0807327 8.91434 0.170133 8.27784C0.259433 7.64134 0.482833 7.02994 0.825133 6.48494C1.16753 5.93994 1.62083 5.47394 2.15493 5.11814C2.68893 4.76234 3.29123 4.52484 3.92133 4.42184C5.71873 4.04884 7.58003 4.21694 9.27253 4.90494C10.965 5.59294 12.4135 6.77044 13.4369 8.29014C13.8509 6.82774 14.3446 5.38864 14.9157 3.97944C16.8274 0.233039 19.2729 -0.321961 23.3599 0.475738C24.2813 0.706939 25.1241 1.17764 25.8045 1.84114C26.485 2.50464 26.9793 3.33774 27.2384 4.25764C28.5645 7.03214 29.1586 10.1101 28.9639 13.1972C28.7693 16.2844 27.7923 19.2776 26.1265 21.8909C23.9514 25.0736 21.5071 28.119 19.4665 31.3703C18.2393 33.2767 17.1399 33.1879 15.3195 31.2717Z" fill="#EE765E"/>
</svg>
