<svg width="170" height="30" viewBox="0 0 170 30" fill="none" xmlns="http://www.w3.org/2000/svg">
<path d="M30.65 29.9987C28.6816 30.0647 28.7483 27.5901 28.1227 22.0283C27.0552 12.593 27.7308 13.7103 30.3748 13.6109C31.4675 13.5779 33.2942 11.3267 35.8965 12.5847C40.5172 14.778 40.4839 26.7129 32.5935 24.8258C30.5166 24.3293 33.3859 29.8993 30.65 29.9987ZM33.1189 15.5477C28.8234 15.6884 32.4767 25.2479 34.8539 21.0764C35.8965 19.2804 35.1624 15.4732 33.1189 15.5477Z" fill="#014E72"/>
<path d="M45.6885 28.5255C43.1446 28.6165 45.6387 25.6122 46.0807 24.0561C46.3224 23.1954 44.7544 23.7417 43.3783 22.8313C41.3097 21.4822 39.3497 13.7435 41.1512 12.56C43.8453 10.7806 43.7369 19.8103 45.7721 19.7359C48.241 19.6529 46.6229 13.3462 48.1992 12.0799C52.2945 8.84379 51.0184 28.36 45.6885 28.5255Z" fill="#EE765E"/>
<path d="M61.4196 23.8071C60.7607 23.832 60.0183 23.3353 59.8599 22.1684C59.7931 21.6551 59.643 17.699 59.4761 16.8216C59.2592 15.7127 58.7255 15.125 58.1083 15.3319C57.833 15.4229 57.2908 15.8285 56.7153 17.5003C56.5735 17.9059 56.023 21.291 55.9064 21.7131C55.581 22.9299 55.1974 23.5837 54.6635 23.8236C54.5051 23.8981 54.3381 23.9395 54.1631 23.9395C53.5959 23.956 53.1121 23.5837 52.8953 23.1946C52.5366 22.5905 52.5533 21.6221 52.6283 20.9104C52.6366 20.8276 52.8953 16.7141 52.9454 16.3417C53.1872 14.5539 53.5458 13.7345 54.1381 13.6517C54.9388 13.5442 55.1891 13.2214 55.5644 12.973C55.6812 12.8985 57.3575 11.8144 58.2334 11.6819C59.5511 11.4833 60.6356 12.1205 61.2944 12.6503C61.7865 13.0475 62.0117 13.2214 62.3371 13.2379C62.5789 13.2296 63.7799 12.344 63.9552 12.2282C64.5808 11.8144 65.3147 11.5827 66.0904 11.5577C66.8995 11.533 67.5667 11.7317 67.9253 11.9386C68.6844 12.3689 69.5185 13.6352 69.7102 14.6531C69.8603 15.4643 70.4108 20.3061 70.4192 21.2992C70.4277 22.2179 70.3108 23.294 69.2599 23.5092C68.5759 23.6581 67.6085 23.1201 67.3249 21.9035C67.2081 21.3655 66.7243 17.5998 66.7243 17.5998C66.6575 17.1115 66.2656 15.754 65.5816 15.7043C65.1062 15.721 64.5556 16.383 64.272 16.9955C64.0552 17.4424 63.3462 21.5889 63.1961 21.9945C62.804 23.0044 62.5622 23.6084 61.6115 23.7823C61.5447 23.7988 61.478 23.8071 61.4196 23.8071Z" fill="#014E72"/>
<path d="M14.0266 29.4279C12.6422 29.4774 12.0416 28.2608 11.9249 27.789L11.9416 27.7807C11.8582 27.5573 11.7497 27.1932 11.5746 26.5889C11.416 26.4647 11.1659 26.3075 10.8906 26.2992C9.98974 26.2827 7.95456 25.8689 6.67013 25.3639C3.54236 24.1143 2.77501 23.1954 2.09942 22.3844C1.98264 22.252 1.87422 22.1195 1.75744 21.9871C0.406242 20.5221 -0.210986 18.5193 0.0642592 16.4833C0.331167 14.472 1.47385 12.8084 2.52479 12.0966C2.39968 12.0139 2.28292 11.9062 2.18281 11.7737C1.71573 11.1779 1.59897 9.55575 3.29215 7.76791C4.73509 6.22847 6.06128 5.61595 7.02876 5.1691C7.51256 4.94567 8.02961 4.80497 8.53025 4.67252C8.88889 4.57308 9.23921 4.4821 9.59784 4.34965C10.2567 4.11797 10.3735 3.43098 10.3985 3.14958L10.4403 2.99237C10.8573 2.13992 11.4578 1.64335 12.1249 1.58537L12.2501 1.57712C13.3094 1.54391 13.8599 2.21439 14.01 2.7937C14.1518 3.34825 14.6774 3.69587 15.6949 3.9028L16.3537 4.04349C19.4816 4.69727 20.0236 5.03665 21.842 6.18721L22.4343 6.57609C24.3859 7.79267 25.562 10.9213 25.829 12.2373C26.0708 13.4706 26.2876 15.4237 25.3285 18.1717C24.4944 20.5636 23.1765 21.8299 22.3008 22.6658C20.3657 24.5114 17.488 25.4633 16.5456 25.6785C16.2204 25.7529 16.1119 26.1006 15.9535 27.5323C15.8868 28.1448 15.7616 29.2787 14.2185 29.4111C14.1601 29.4194 14.0934 29.4279 14.0266 29.4279ZM4.54326 11.4428C5.15213 11.4428 5.51912 11.6745 5.68595 11.8235C6.01957 12.1131 6.10298 12.5684 5.91948 13.0732C5.8611 13.2305 5.71931 13.3961 5.47742 13.6526C5.04371 14.1244 4.76846 15.1093 4.53492 16.1024C4.30138 17.1123 4.66004 18.8254 5.31061 19.7773C5.92782 20.6795 6.23644 20.9774 7.41255 21.474C8.51341 21.9375 9.89806 22.0698 10.5236 22.0533L10.6488 22.045C10.9407 22.0203 11.1575 21.9291 11.291 21.7801C11.4494 21.5982 11.5079 21.325 11.4661 20.9524C11.3827 20.2159 11.3578 19.1813 11.3243 18.0972C11.2993 17.253 11.2742 16.3756 11.2243 15.5811C11.1074 13.7685 10.7488 10.0606 10.6236 9.36533C10.5153 8.75281 10.3652 8.67009 10.2234 8.59561C10.0648 8.50463 9.823 8.46316 9.52279 8.47967C9.03899 8.49638 8.57183 8.63708 8.37162 8.71981C7.01213 9.24939 6.46991 9.62197 6.17801 9.85365C5.43571 10.4165 5.06038 10.8138 4.54326 11.4428ZM16.1119 8.19827C15.7032 8.21498 15.5949 8.38869 15.3445 8.93498C15.0776 9.50603 15.0109 11.3434 15.136 14.3975L15.1443 14.53C15.1944 15.7713 15.5364 19.5042 15.7283 20.1C15.9369 20.754 16.0369 21.0601 16.6708 21.2173C17.1379 21.3333 17.755 21.0931 18.6057 20.4726C20.4825 19.1068 21.3917 17.3357 21.6586 14.5382C21.8337 12.6429 20.716 10.5654 19.5401 9.65498C18.1053 8.54589 17.2045 8.27274 16.2955 8.20652C16.2288 8.19827 16.1703 8.19002 16.1119 8.19827Z" fill="#FCBD16"/>
<path d="M155.145 24.8466C151.9 23.5388 156.113 20.9317 157.53 17.7204C158.273 16.0403 157.881 15.8168 156.663 15.403C152.868 14.1037 151.992 11.1572 153.352 7.31686C155.837 0.223689 167.039 -0.190157 167.923 6.07532C167.931 6.15805 169.925 18.5896 169.983 19.2681C170.25 22.3305 167.264 22.1568 167.823 22.1401C164.336 22.2808 166.063 15.6596 164.095 15.7423C160.533 15.883 159.916 26.7667 155.145 24.8466ZM159.941 5.51252C156.513 6.59665 156.213 14.3519 161.926 12.2248C166.897 10.3708 164.537 4.0558 159.941 5.51252Z" fill="#014E72"/>
<path d="M147.578 25.5433C143.65 25.6922 146.953 16.9024 145.185 15.4377C143.933 14.3865 137.811 14.8831 137.269 15.123C134.05 16.5548 136.644 25.2784 133.099 25.4191C130.071 25.5185 130.939 21.0409 131.597 13.145C132.123 6.87952 131.456 2.26943 134.617 1.98803C137.878 1.78956 134.792 9.85092 136.71 10.7944C138.295 11.5806 141.731 11.4316 143.683 10.9351C145.794 10.3972 146.269 8.15407 146.269 6.04357C146.269 1.37572 147.386 0.854175 147.895 0.72998C150.131 0.16718 150.331 4.82699 150.122 8.45218C149.213 24.5004 150.231 25.4439 147.578 25.5433Z" fill="#014E72"/>
<path d="M113.273 25.3774C108.836 25.5511 115.083 19.1202 115.55 18.4747C116.868 16.6373 116.376 16.5711 115.267 15.8841C111.814 13.7653 111.814 10.6615 114.015 7.3012C118.194 0.862223 129.154 2.79055 128.487 9.16351C128.478 9.24624 127.394 21.744 127.277 22.464C126.693 26.1139 122.69 25.2862 123.032 21.9839C123.741 15.2798 120.379 18.4084 116.351 23.7635C115.817 24.467 114.95 25.3029 113.273 25.3774ZM119.771 7.49987C115.659 8.51798 116.718 14.717 121.08 13.9888C125.876 13.186 124.108 6.42399 119.771 7.49987Z" fill="#014E72"/>
<path d="M93.3724 29.1435C90.3613 29.2594 92.3632 25.0964 88.3095 6.53187C87.367 2.2364 91.1871 1.3757 92.0797 4.86019C93.314 9.65223 93.9645 12.8221 94.882 13.1202C96.6253 13.683 100.237 12.8966 102.164 12.0524C105.892 10.422 102.272 0.68045 105.3 0.0514266C107.86 -0.503121 107.902 3.37025 109.103 14.4443C109.912 21.9843 112.256 26.7683 108.661 26.9006C104.541 27.0082 107.635 15.9837 102.764 16.1824C101.922 16.2156 101.33 16.3811 100.062 16.6212C97.6345 17.0846 95.2824 17.308 95.1907 19.8821C95.0988 22.812 96.4835 29.036 93.3724 29.1435Z" fill="#014E72"/>
<path d="M79.4257 11.5249C76.1393 10.6807 73.2368 12.667 72.1941 16.9045C71.1517 21.1422 72.5945 23.8487 75.9142 24.635C79.2421 25.4212 82.7619 23.0128 83.5044 18.6261C84.2549 14.2479 81.8945 12.1622 79.4257 11.5249ZM80.1513 18.6261C79.7093 20.6954 78.1161 21.9782 76.6982 21.4734C75.2719 20.9685 74.8466 19.7105 75.4387 17.542C76.031 15.3735 77.0402 14.3389 78.7084 14.5624C80.3014 14.7858 80.6018 16.5571 80.1513 18.6261Z" fill="#4AAE42"/>
</svg>
