<svg width="33" height="33" viewBox="0 0 33 33" fill="none" xmlns="http://www.w3.org/2000/svg">
<g clip-path="url(#clip0_91_288)">
<path d="M0 7.37866C0 3.39186 3.23195 0.159912 7.21875 0.159912H25.7812C29.7681 0.159912 33 3.39186 33 7.37866V25.9412C33 29.928 29.7681 33.1599 25.7812 33.1599H7.21875C3.23195 33.1599 0 29.928 0 25.9412V7.37866Z" fill="#ED812B"/>
<path d="M16.7245 9.7981C17.8263 9.7981 18.7629 10.6991 18.7629 11.8816C18.7629 13.0079 17.8815 13.9652 16.7245 13.9652C15.5677 13.9652 14.6861 13.0642 14.6861 11.8816C14.6861 10.6991 15.5677 9.7981 16.7245 9.7981ZM16.7245 16.8371C19.4239 16.8371 21.6276 14.5846 21.6276 11.8253C21.5725 9.12236 19.4239 6.86987 16.7245 6.86987C14.0251 6.86987 11.8214 9.12236 11.8214 11.8816C11.8214 14.641 14.0251 16.8371 16.7245 16.8371ZM18.6526 20.9479C19.6443 20.7226 20.5809 20.3284 21.5174 19.7653C22.1785 19.3148 22.3989 18.4139 21.9581 17.7381C21.5174 17.0623 20.6359 16.8371 19.9749 17.2875C17.9916 18.5828 15.4023 18.5828 13.4192 17.2875C12.758 16.8371 11.8766 17.0623 11.4359 17.7381C10.9951 18.4139 11.2155 19.3148 11.8766 19.7653C12.758 20.3284 13.6946 20.7226 14.7413 20.9479L11.9867 23.7635C11.4358 24.3266 11.4358 25.2839 11.9867 25.847C12.2622 26.1286 12.6479 26.2975 12.9784 26.2975C13.3089 26.2975 13.6946 26.1286 13.97 25.847L16.6694 23.0877L19.3688 25.847C19.9197 26.4101 20.8563 26.4101 21.4072 25.847C21.9581 25.2839 21.9581 24.3266 21.4072 23.7635L18.6526 20.9479Z" fill="white"/>
</g>
<defs>
<clipPath id="clip0_91_288">
<rect width="33" height="33" fill="white" transform="translate(0 0.159912)"/>
</clipPath>
</defs>
</svg>
