<svg width="22" height="24" viewBox="0 0 22 24" fill="none" xmlns="http://www.w3.org/2000/svg">
<path fill-rule="evenodd" clip-rule="evenodd" d="M19.271 16.0365C19.271 17.4232 18.3238 18.7846 16.3962 18.7986H15.0696L15.2856 20.1123L21.0241 22.3719L20.653 23.9354L1.09461 24L0.759494 22.4309L6.88845 20.0926L7.02415 18.8744H5.77233C3.77273 18.8884 2.75078 17.5186 2.72585 16.1123C-0.985306 15.3572 -0.952072 10.0295 3.10251 9.30246C2.53753 4.90386 5.27382 0 11.0455 0C16.7701 0 19.3264 4.87579 18.7752 9.26316C22.8908 9.75439 23.0791 15.3516 19.271 16.0365ZM13.6184 20.5558C13.5713 19.9635 13.4938 18.7509 13.4439 17.9874C12.7152 18.2581 11.9434 18.3903 11.1674 18.3775C10.3152 18.3892 9.4688 18.2339 8.67479 17.92C8.62771 18.7621 8.54739 20.1881 8.5197 20.8112C8.42553 22.7004 13.7763 22.734 13.6184 20.5558ZM11.0677 16.7888C14.5213 16.7888 15.7232 13.7319 15.9503 8.69333C15.8439 8.34025 15.6791 8.00804 15.4629 7.71088C14.8841 8.41825 13.8206 9.34456 12.9703 9.46807C13.3054 8.20211 13.5492 6.53754 13.3359 5.81895C12.0564 7.66877 8.97113 9.36702 5.82772 8.95158C6.14899 13.9677 7.66115 16.7888 11.0677 16.7888Z" fill="#024A6C"/>
</svg>
