<svg width="33" height="33" viewBox="0 0 33 33" fill="none" xmlns="http://www.w3.org/2000/svg">
<g clip-path="url(#clip0_91_291)">
<path d="M25.7812 0.159912H7.21875C3.23194 0.159912 0 3.39186 0 7.37866V25.9412C0 29.928 3.23194 33.1599 7.21875 33.1599H25.7812C29.7681 33.1599 33 29.928 33 25.9412V7.37866C33 3.39186 29.7681 0.159912 25.7812 0.159912Z" fill="#229ED9"/>
<path fill-rule="evenodd" clip-rule="evenodd" d="M7.35853 15.6549L17.6961 11.2022C22.6187 9.15463 23.6416 8.79897 24.3083 8.78724C24.455 8.78465 24.7829 8.82099 24.9952 8.99332C25.1746 9.13882 25.2239 9.33544 25.2475 9.47335C25.2712 9.61126 25.3005 9.92561 25.2772 10.1712C25.0104 12.9741 23.8561 19.776 23.2689 22.9153C23.0204 24.2437 22.5315 24.6891 22.0575 24.7327C21.0281 24.8274 20.2464 24.0524 19.2494 23.3988L15.2935 20.7415C13.5433 19.5883 14.6779 18.9544 15.6753 17.9185C15.9363 17.6473 20.4718 13.522 20.5595 13.1477C20.5702 13.1009 20.5808 12.9265 20.4771 12.8343C20.3735 12.7421 20.2205 12.774 20.1101 12.7988C19.9536 12.8342 17.4612 14.4815 12.6331 17.7408C11.9257 18.2265 11.2849 18.4633 10.7108 18.4509C10.0779 18.4372 8.86043 18.093 7.95537 17.7988C6.84526 17.4379 5.96296 17.2472 6.03982 16.6344C6.07981 16.3152 6.51943 15.9887 7.35853 15.6549Z" fill="white"/>
</g>
<defs>
<clipPath id="clip0_91_291">
<rect width="33" height="33" fill="white" transform="translate(0 0.159912)"/>
</clipPath>
</defs>
</svg>
