<svg width="33" height="33" viewBox="0 0 33 33" fill="none" xmlns="http://www.w3.org/2000/svg">
<g clip-path="url(#clip0_170_400)">
<path d="M0 7.87866C0 3.89186 3.23195 0.659912 7.21875 0.659912H25.7812C29.7681 0.659912 33 3.89186 33 7.87866V26.4412C33 30.428 29.7681 33.6599 25.7812 33.6599H7.21875C3.23195 33.6599 0 30.428 0 26.4412V7.87866Z" fill="#2787F5"/>
<path fill-rule="evenodd" clip-rule="evenodd" d="M9.87639 11.9338H7.82386C7.23741 11.9338 7.12012 12.2098 7.12012 12.5141C7.12012 13.0577 7.81597 15.7535 10.3602 19.3188C12.0563 21.7537 14.4459 23.0736 16.6205 23.0736C17.9252 23.0736 18.0866 22.7804 18.0866 22.2755V20.4353C18.0866 19.8489 18.2101 19.7318 18.6233 19.7318C18.9278 19.7318 19.4496 19.8841 20.6674 21.058C22.0591 22.4494 22.2885 23.0736 23.0713 23.0736H25.1239C25.7103 23.0736 26.0035 22.7804 25.8344 22.2019C25.6493 21.6253 24.9848 20.7888 24.1031 19.7971C23.6247 19.2319 22.9071 18.6231 22.6897 18.3188C22.3853 17.9275 22.4722 17.7535 22.6897 17.4058C22.6897 17.4058 25.1904 13.8838 25.4513 12.6882C25.5817 12.2533 25.4513 11.9338 24.8306 11.9338H22.7781C22.2562 11.9338 22.0156 12.2098 21.8851 12.5141C21.8851 12.5141 20.8413 15.0578 19.3627 16.71C18.8843 17.1883 18.6668 17.3405 18.4058 17.3405C18.2753 17.3405 18.0865 17.1883 18.0865 16.7535V12.6882C18.0865 12.1664 17.9351 11.9338 17.5001 11.9338H14.2747C13.9486 11.9338 13.7524 12.176 13.7524 12.4055C13.7524 12.9001 14.4917 13.0142 14.568 14.4055V17.4275C14.568 18.09 14.4483 18.2101 14.1873 18.2101C13.4915 18.2101 11.7989 15.6551 10.795 12.7316C10.5983 12.1634 10.401 11.9338 9.87639 11.9338Z" fill="white"/>
</g>
<defs>
<clipPath id="clip0_170_400">
<rect width="33" height="33" fill="white" transform="translate(0 0.659912)"/>
</clipPath>
</defs>
</svg>
