<svg width="33" height="33" viewBox="0 0 33 33" fill="none" xmlns="http://www.w3.org/2000/svg">
<g clip-path="url(#clip0_91_294)">
<path d="M0 7.37866C0 3.39186 3.23195 0.159912 7.21875 0.159912H25.7812C29.7681 0.159912 33 3.39186 33 7.37866V25.9412C33 29.928 29.7681 33.1599 25.7812 33.1599H7.21875C3.23195 33.1599 0 29.928 0 25.9412V7.37866Z" fill="#FF0000"/>
<path fill-rule="evenodd" clip-rule="evenodd" d="M6.95068 16.3316C6.95068 13.7676 7.28408 12.3345 7.28408 12.3345C7.53044 10.7296 9.02335 9.22488 10.6238 9.01591C10.6238 9.01591 12.1147 8.63965 16.4992 8.63965C20.8838 8.63965 22.3773 9.0162 22.3773 9.0162C23.9741 9.24394 25.4763 10.7303 25.7043 12.337C25.7043 12.337 26.0479 13.9649 26.0479 16.3316C26.0479 18.6983 25.7043 20.3261 25.7043 20.3261C25.4636 21.9324 23.9715 23.4136 22.3674 23.61C22.3674 23.61 20.0069 24.0236 16.4992 24.0236C12.9917 24.0236 10.6286 23.6097 10.6286 23.6097C9.02787 23.4025 7.51562 21.9349 7.28351 20.3245C7.28351 20.3245 6.95068 18.8956 6.95068 16.3316ZM14.9917 19.7666C14.5329 20.048 14.1609 19.8351 14.1609 19.2929V13.3702C14.1609 12.8272 14.5344 12.6161 14.9917 12.8966L19.7608 15.8219C20.2196 16.1035 20.218 16.5607 19.7608 16.8412L14.9917 19.7666Z" fill="white"/>
</g>
<defs>
<clipPath id="clip0_91_294">
<rect width="33" height="33" fill="white" transform="translate(0 0.159912)"/>
</clipPath>
</defs>
</svg>
